<mxfile host="app.diagrams.net" agent="Mozilla/5.0 (Macintosh; Intel Mac OS X 10_15_7) AppleWebKit/605.1.15 (KHTML, like Gecko) Version/17.6 Safari/605.1.15" version="26.2.10">
  <diagram name="Page-1" id="ZFAcVRVE-hqpHr65Nv5H">
    <mxGraphModel dx="703" dy="483" grid="1" gridSize="10" guides="1" tooltips="1" connect="1" arrows="1" fold="1" page="1" pageScale="1" pageWidth="827" pageHeight="1169" math="0" shadow="0">
      <root>
        <mxCell id="0" />
        <mxCell id="1" parent="0" />
        <mxCell id="Cuksicx7Q6Ttsj1FzyHK-64" value="Faculty" style="whiteSpace=wrap;html=1;align=center;labelBackgroundColor=none;fillColor=#FAD9D5;strokeColor=#D0CEE2;fontColor=#1A1A1A;" parent="1" vertex="1">
          <mxGeometry x="16" y="203.75" width="100" height="40" as="geometry" />
        </mxCell>
        <mxCell id="Cuksicx7Q6Ttsj1FzyHK-65" value="&lt;b&gt;code&lt;/b&gt;" style="ellipse;whiteSpace=wrap;html=1;align=center;fontStyle=4;labelBackgroundColor=none;fillColor=#FAD9D5;strokeColor=#D0CEE2;fontColor=#1A1A1A;" parent="1" vertex="1">
          <mxGeometry x="6" y="160" width="80" height="35" as="geometry" />
        </mxCell>
        <mxCell id="Cuksicx7Q6Ttsj1FzyHK-66" value="" style="endArrow=none;html=1;rounded=0;entryX=0.5;entryY=0;entryDx=0;entryDy=0;exitX=0.5;exitY=1;exitDx=0;exitDy=0;labelBackgroundColor=none;fontColor=default;strokeColor=#09555B;" parent="1" source="Cuksicx7Q6Ttsj1FzyHK-65" target="Cuksicx7Q6Ttsj1FzyHK-64" edge="1">
          <mxGeometry relative="1" as="geometry">
            <mxPoint x="66" y="170" as="sourcePoint" />
            <mxPoint x="41" y="244" as="targetPoint" />
          </mxGeometry>
        </mxCell>
        <mxCell id="Cuksicx7Q6Ttsj1FzyHK-67" value="" style="shape=link;html=1;rounded=0;exitX=1;exitY=0.5;exitDx=0;exitDy=0;entryX=0;entryY=0.5;entryDx=0;entryDy=0;labelBackgroundColor=none;fontColor=default;strokeColor=#09555B;" parent="1" source="Cuksicx7Q6Ttsj1FzyHK-72" target="Cuksicx7Q6Ttsj1FzyHK-71" edge="1">
          <mxGeometry relative="1" as="geometry">
            <mxPoint x="271" y="225" as="sourcePoint" />
            <mxPoint x="331" y="225" as="targetPoint" />
          </mxGeometry>
        </mxCell>
        <mxCell id="Cuksicx7Q6Ttsj1FzyHK-68" value="N" style="resizable=0;html=1;whiteSpace=wrap;align=right;verticalAlign=bottom;labelBackgroundColor=none;fillColor=#FAD9D5;strokeColor=#D0CEE2;fontColor=#1A1A1A;" parent="Cuksicx7Q6Ttsj1FzyHK-67" connectable="0" vertex="1">
          <mxGeometry x="1" relative="1" as="geometry" />
        </mxCell>
        <mxCell id="Cuksicx7Q6Ttsj1FzyHK-69" value="" style="endArrow=none;html=1;rounded=0;exitX=1;exitY=0.5;exitDx=0;exitDy=0;entryX=0;entryY=0.5;entryDx=0;entryDy=0;labelBackgroundColor=none;fontColor=default;strokeColor=#09555B;" parent="1" source="Cuksicx7Q6Ttsj1FzyHK-64" target="Cuksicx7Q6Ttsj1FzyHK-72" edge="1">
          <mxGeometry relative="1" as="geometry">
            <mxPoint x="131" y="275" as="sourcePoint" />
            <mxPoint x="181" y="225" as="targetPoint" />
          </mxGeometry>
        </mxCell>
        <mxCell id="Cuksicx7Q6Ttsj1FzyHK-70" value="1" style="resizable=0;html=1;whiteSpace=wrap;align=right;verticalAlign=bottom;labelBackgroundColor=none;fillColor=#FAD9D5;strokeColor=#D0CEE2;fontColor=#1A1A1A;" parent="Cuksicx7Q6Ttsj1FzyHK-69" connectable="0" vertex="1">
          <mxGeometry x="1" relative="1" as="geometry">
            <mxPoint x="-25" as="offset" />
          </mxGeometry>
        </mxCell>
        <mxCell id="Cuksicx7Q6Ttsj1FzyHK-71" value="Study ProgramInstance" style="whiteSpace=wrap;html=1;align=center;labelBackgroundColor=none;fillColor=#FAD9D5;strokeColor=#D0CEE2;fontColor=#1A1A1A;" parent="1" vertex="1">
          <mxGeometry x="331" y="205" width="100" height="40" as="geometry" />
        </mxCell>
        <mxCell id="Cuksicx7Q6Ttsj1FzyHK-72" value="offers" style="shape=rhombus;perimeter=rhombusPerimeter;whiteSpace=wrap;html=1;align=center;labelBackgroundColor=none;fillColor=#FAD9D5;strokeColor=#D0CEE2;fontColor=#1A1A1A;" parent="1" vertex="1">
          <mxGeometry x="161" y="195" width="120" height="60" as="geometry" />
        </mxCell>
        <mxCell id="Cuksicx7Q6Ttsj1FzyHK-73" value="SemesterInstance" style="shape=ext;margin=3;double=1;whiteSpace=wrap;html=1;align=center;labelBackgroundColor=none;fillColor=#FAD9D5;strokeColor=#D0CEE2;fontColor=#1A1A1A;" parent="1" vertex="1">
          <mxGeometry x="316" y="365" width="130" height="40" as="geometry" />
        </mxCell>
        <mxCell id="Cuksicx7Q6Ttsj1FzyHK-74" value="includes" style="shape=rhombus;double=1;perimeter=rhombusPerimeter;whiteSpace=wrap;html=1;align=center;labelBackgroundColor=none;fillColor=#FAD9D5;strokeColor=#D0CEE2;fontColor=#1A1A1A;" parent="1" vertex="1">
          <mxGeometry x="331" y="275" width="100" height="50" as="geometry" />
        </mxCell>
        <mxCell id="Cuksicx7Q6Ttsj1FzyHK-75" value="" style="endArrow=none;html=1;rounded=0;exitX=0.5;exitY=1;exitDx=0;exitDy=0;entryX=0.5;entryY=0;entryDx=0;entryDy=0;labelBackgroundColor=none;fontColor=default;strokeColor=#09555B;" parent="1" source="Cuksicx7Q6Ttsj1FzyHK-71" target="Cuksicx7Q6Ttsj1FzyHK-74" edge="1">
          <mxGeometry relative="1" as="geometry">
            <mxPoint x="211" y="295" as="sourcePoint" />
            <mxPoint x="371" y="295" as="targetPoint" />
          </mxGeometry>
        </mxCell>
        <mxCell id="Cuksicx7Q6Ttsj1FzyHK-76" value="1" style="resizable=0;html=1;whiteSpace=wrap;align=right;verticalAlign=bottom;labelBackgroundColor=none;fillColor=#FAD9D5;strokeColor=#D0CEE2;fontColor=#1A1A1A;" parent="1" connectable="0" vertex="1">
          <mxGeometry x="391.0000000000001" y="265" as="geometry" />
        </mxCell>
        <mxCell id="Cuksicx7Q6Ttsj1FzyHK-77" value="" style="shape=link;html=1;rounded=0;exitX=0.5;exitY=1;exitDx=0;exitDy=0;entryX=0.5;entryY=0;entryDx=0;entryDy=0;labelBackgroundColor=none;fontColor=default;strokeColor=#09555B;" parent="1" source="Cuksicx7Q6Ttsj1FzyHK-74" target="Cuksicx7Q6Ttsj1FzyHK-73" edge="1">
          <mxGeometry relative="1" as="geometry">
            <mxPoint x="191" y="375" as="sourcePoint" />
            <mxPoint x="351" y="375" as="targetPoint" />
          </mxGeometry>
        </mxCell>
        <mxCell id="Cuksicx7Q6Ttsj1FzyHK-78" value="N" style="resizable=0;html=1;whiteSpace=wrap;align=right;verticalAlign=bottom;labelBackgroundColor=none;fillColor=#FAD9D5;strokeColor=#D0CEE2;fontColor=#1A1A1A;" parent="Cuksicx7Q6Ttsj1FzyHK-77" connectable="0" vertex="1">
          <mxGeometry x="1" relative="1" as="geometry" />
        </mxCell>
        <mxCell id="Cuksicx7Q6Ttsj1FzyHK-79" value="CourseOffering" style="whiteSpace=wrap;html=1;align=center;labelBackgroundColor=none;fillColor=#FAD9D5;strokeColor=#D0CEE2;fontColor=#1A1A1A;" parent="1" vertex="1">
          <mxGeometry x="646" y="365" width="100" height="40" as="geometry" />
        </mxCell>
        <mxCell id="Cuksicx7Q6Ttsj1FzyHK-80" value="&lt;b&gt;course_code&lt;/b&gt;" style="ellipse;whiteSpace=wrap;html=1;align=center;fontStyle=4;labelBackgroundColor=none;fillColor=#FAD9D5;strokeColor=#D0CEE2;fontColor=#1A1A1A;" parent="1" vertex="1">
          <mxGeometry x="566" y="580" width="100" height="40" as="geometry" />
        </mxCell>
        <mxCell id="Cuksicx7Q6Ttsj1FzyHK-81" value="" style="endArrow=none;html=1;rounded=0;entryX=0.25;entryY=1;entryDx=0;entryDy=0;exitX=1;exitY=0;exitDx=0;exitDy=0;labelBackgroundColor=none;fontColor=default;strokeColor=#09555B;" parent="1" source="Cuksicx7Q6Ttsj1FzyHK-80" target="Cuksicx7Q6Ttsj1FzyHK-130" edge="1">
          <mxGeometry relative="1" as="geometry">
            <mxPoint x="111" y="535" as="sourcePoint" />
            <mxPoint x="271" y="535" as="targetPoint" />
          </mxGeometry>
        </mxCell>
        <mxCell id="Cuksicx7Q6Ttsj1FzyHK-82" value="" style="endArrow=none;html=1;rounded=0;exitX=0.75;exitY=1;exitDx=0;exitDy=0;entryX=0.5;entryY=0;entryDx=0;entryDy=0;labelBackgroundColor=none;fontColor=default;strokeColor=#09555B;" parent="1" source="Cuksicx7Q6Ttsj1FzyHK-73" target="Cuksicx7Q6Ttsj1FzyHK-83" edge="1">
          <mxGeometry relative="1" as="geometry">
            <mxPoint x="101" y="435" as="sourcePoint" />
            <mxPoint x="421" y="445" as="targetPoint" />
          </mxGeometry>
        </mxCell>
        <mxCell id="Cuksicx7Q6Ttsj1FzyHK-83" value="&lt;span style=&quot;border-bottom-width: 1px; border-bottom-style: dotted; border-bottom-color: currentcolor;&quot;&gt;sem_no&lt;/span&gt;" style="ellipse;whiteSpace=wrap;html=1;align=center;labelBackgroundColor=none;fillColor=#FAD9D5;strokeColor=#D0CEE2;fontColor=#1A1A1A;" parent="1" vertex="1">
          <mxGeometry x="376" y="430" width="100" height="40" as="geometry" />
        </mxCell>
        <mxCell id="Cuksicx7Q6Ttsj1FzyHK-84" value="" style="endArrow=none;html=1;rounded=0;exitX=0.5;exitY=0;exitDx=0;exitDy=0;entryX=0.5;entryY=1;entryDx=0;entryDy=0;labelBackgroundColor=none;fontColor=default;strokeColor=#09555B;" parent="1" source="Cuksicx7Q6Ttsj1FzyHK-88" target="Cuksicx7Q6Ttsj1FzyHK-73" edge="1">
          <mxGeometry relative="1" as="geometry">
            <mxPoint x="276" y="455" as="sourcePoint" />
            <mxPoint x="131" y="425" as="targetPoint" />
          </mxGeometry>
        </mxCell>
        <mxCell id="Cuksicx7Q6Ttsj1FzyHK-85" value="&lt;b&gt;program_code&lt;/b&gt;" style="ellipse;whiteSpace=wrap;html=1;align=center;fontStyle=4;labelBackgroundColor=none;fillColor=#FAD9D5;strokeColor=#D0CEE2;fontColor=#1A1A1A;" parent="1" vertex="1">
          <mxGeometry x="476" y="113" width="100" height="40" as="geometry" />
        </mxCell>
        <mxCell id="Cuksicx7Q6Ttsj1FzyHK-86" value="" style="endArrow=none;html=1;rounded=0;exitX=0.75;exitY=0;exitDx=0;exitDy=0;entryX=0;entryY=1;entryDx=0;entryDy=0;labelBackgroundColor=none;fontColor=default;strokeColor=#09555B;" parent="1" source="Cuksicx7Q6Ttsj1FzyHK-71" target="Cuksicx7Q6Ttsj1FzyHK-85" edge="1">
          <mxGeometry relative="1" as="geometry">
            <mxPoint x="121" y="455" as="sourcePoint" />
            <mxPoint x="141" y="435" as="targetPoint" />
          </mxGeometry>
        </mxCell>
        <mxCell id="Cuksicx7Q6Ttsj1FzyHK-87" value="is_compulsory" style="ellipse;whiteSpace=wrap;html=1;align=center;labelBackgroundColor=none;fillColor=#FAD9D5;strokeColor=#D0CEE2;fontColor=#1A1A1A;" parent="1" vertex="1">
          <mxGeometry x="201" y="307" width="100" height="40" as="geometry" />
        </mxCell>
        <mxCell id="Cuksicx7Q6Ttsj1FzyHK-88" value="compulsory_credits" style="ellipse;whiteSpace=wrap;html=1;align=center;dashed=1;labelBackgroundColor=none;fillColor=#FAD9D5;strokeColor=#D0CEE2;fontColor=#1A1A1A;" parent="1" vertex="1">
          <mxGeometry x="205" y="430" width="130" height="40" as="geometry" />
        </mxCell>
        <mxCell id="Cuksicx7Q6Ttsj1FzyHK-89" value="" style="endArrow=none;html=1;rounded=0;exitX=0.5;exitY=1;exitDx=0;exitDy=0;entryX=1;entryY=0;entryDx=0;entryDy=0;labelBackgroundColor=none;fontColor=default;strokeColor=#09555B;" parent="1" source="Cuksicx7Q6Ttsj1FzyHK-87" target="Cuksicx7Q6Ttsj1FzyHK-91" edge="1">
          <mxGeometry relative="1" as="geometry">
            <mxPoint x="296" y="475" as="sourcePoint" />
            <mxPoint x="121" y="405" as="targetPoint" />
          </mxGeometry>
        </mxCell>
        <mxCell id="Cuksicx7Q6Ttsj1FzyHK-90" value="credit_weight" style="ellipse;whiteSpace=wrap;html=1;align=center;labelBackgroundColor=none;fillColor=#FAD9D5;strokeColor=#D0CEE2;fontColor=#1A1A1A;" parent="1" vertex="1">
          <mxGeometry x="633" y="615" width="100" height="40" as="geometry" />
        </mxCell>
        <mxCell id="Cuksicx7Q6Ttsj1FzyHK-91" value="belongs_to" style="shape=rhombus;perimeter=rhombusPerimeter;whiteSpace=wrap;html=1;align=center;labelBackgroundColor=none;fillColor=#FAD9D5;strokeColor=#D0CEE2;fontColor=#1A1A1A;" parent="1" vertex="1">
          <mxGeometry x="161" y="360" width="90" height="50" as="geometry" />
        </mxCell>
        <mxCell id="Cuksicx7Q6Ttsj1FzyHK-92" value="program_name" style="ellipse;whiteSpace=wrap;html=1;align=center;labelBackgroundColor=none;fillColor=#FAD9D5;strokeColor=#D0CEE2;fontColor=#1A1A1A;" parent="1" vertex="1">
          <mxGeometry x="196" y="143" width="100" height="40" as="geometry" />
        </mxCell>
        <mxCell id="Cuksicx7Q6Ttsj1FzyHK-93" value="" style="endArrow=none;html=1;rounded=0;exitX=0.25;exitY=0;exitDx=0;exitDy=0;entryX=1;entryY=1;entryDx=0;entryDy=0;labelBackgroundColor=none;fontColor=default;strokeColor=#09555B;" parent="1" source="Cuksicx7Q6Ttsj1FzyHK-71" target="Cuksicx7Q6Ttsj1FzyHK-92" edge="1">
          <mxGeometry relative="1" as="geometry">
            <mxPoint x="391" y="215" as="sourcePoint" />
            <mxPoint x="421" y="175" as="targetPoint" />
          </mxGeometry>
        </mxCell>
        <mxCell id="Cuksicx7Q6Ttsj1FzyHK-96" value="" style="endArrow=none;html=1;rounded=0;exitX=1;exitY=0.5;exitDx=0;exitDy=0;entryX=0;entryY=0.5;entryDx=0;entryDy=0;labelBackgroundColor=none;fontColor=default;strokeColor=#09555B;" parent="1" source="Cuksicx7Q6Ttsj1FzyHK-91" target="Cuksicx7Q6Ttsj1FzyHK-73" edge="1">
          <mxGeometry relative="1" as="geometry">
            <mxPoint x="111" y="395" as="sourcePoint" />
            <mxPoint x="171" y="395" as="targetPoint" />
          </mxGeometry>
        </mxCell>
        <mxCell id="Cuksicx7Q6Ttsj1FzyHK-97" value="M" style="resizable=0;html=1;whiteSpace=wrap;align=right;verticalAlign=bottom;labelBackgroundColor=none;fillColor=#FAD9D5;strokeColor=#D0CEE2;fontColor=#1A1A1A;" parent="Cuksicx7Q6Ttsj1FzyHK-96" connectable="0" vertex="1">
          <mxGeometry x="1" relative="1" as="geometry">
            <mxPoint as="offset" />
          </mxGeometry>
        </mxCell>
        <mxCell id="Cuksicx7Q6Ttsj1FzyHK-98" value="" style="endArrow=none;html=1;rounded=0;entryX=1;entryY=0.5;entryDx=0;entryDy=0;labelBackgroundColor=none;fontColor=default;strokeColor=#09555B;" parent="1" source="Cuksicx7Q6Ttsj1FzyHK-99" target="Cuksicx7Q6Ttsj1FzyHK-71" edge="1">
          <mxGeometry relative="1" as="geometry">
            <mxPoint x="366" y="215" as="sourcePoint" />
            <mxPoint x="318" y="154" as="targetPoint" />
          </mxGeometry>
        </mxCell>
        <mxCell id="Cuksicx7Q6Ttsj1FzyHK-99" value="total_credits" style="ellipse;whiteSpace=wrap;html=1;align=center;dashed=1;labelBackgroundColor=none;fillColor=#FAD9D5;strokeColor=#D0CEE2;fontColor=#1A1A1A;" parent="1" vertex="1">
          <mxGeometry x="469" y="161" width="130" height="40" as="geometry" />
        </mxCell>
        <mxCell id="Cuksicx7Q6Ttsj1FzyHK-100" value="N" style="resizable=0;html=1;whiteSpace=wrap;align=right;verticalAlign=bottom;labelBackgroundColor=none;fillColor=#FAD9D5;strokeColor=#D0CEE2;fontColor=#1A1A1A;" parent="1" connectable="0" vertex="1">
          <mxGeometry x="469.0000000000001" y="365" as="geometry" />
        </mxCell>
        <mxCell id="Cuksicx7Q6Ttsj1FzyHK-101" value="" style="endArrow=none;html=1;rounded=0;exitX=1;exitY=0.5;exitDx=0;exitDy=0;entryX=0;entryY=0.5;entryDx=0;entryDy=0;labelBackgroundColor=none;fontColor=default;strokeColor=#09555B;" parent="1" source="Cuksicx7Q6Ttsj1FzyHK-73" target="Cuksicx7Q6Ttsj1FzyHK-121" edge="1">
          <mxGeometry relative="1" as="geometry">
            <mxPoint x="501" y="330" as="sourcePoint" />
            <mxPoint x="491" y="385" as="targetPoint" />
          </mxGeometry>
        </mxCell>
        <mxCell id="Cuksicx7Q6Ttsj1FzyHK-102" value="" style="endArrow=none;html=1;rounded=0;entryX=0.5;entryY=0;entryDx=0;entryDy=0;exitX=0.5;exitY=1;exitDx=0;exitDy=0;labelBackgroundColor=none;fontColor=default;strokeColor=#09555B;" parent="1" source="Cuksicx7Q6Ttsj1FzyHK-105" target="Cuksicx7Q6Ttsj1FzyHK-71" edge="1">
          <mxGeometry relative="1" as="geometry">
            <mxPoint x="396" y="120" as="sourcePoint" />
            <mxPoint x="721" y="375" as="targetPoint" />
          </mxGeometry>
        </mxCell>
        <mxCell id="Cuksicx7Q6Ttsj1FzyHK-103" value="" style="endArrow=none;html=1;rounded=0;exitX=1;exitY=0.5;exitDx=0;exitDy=0;entryX=0;entryY=0.5;entryDx=0;entryDy=0;labelBackgroundColor=none;fontColor=default;strokeColor=#09555B;" parent="1" source="Cuksicx7Q6Ttsj1FzyHK-71" target="Cuksicx7Q6Ttsj1FzyHK-110" edge="1">
          <mxGeometry relative="1" as="geometry">
            <mxPoint x="461" y="264" as="sourcePoint" />
            <mxPoint x="471" y="225" as="targetPoint" />
          </mxGeometry>
        </mxCell>
        <mxCell id="Cuksicx7Q6Ttsj1FzyHK-104" value="1" style="resizable=0;html=1;whiteSpace=wrap;align=right;verticalAlign=bottom;labelBackgroundColor=none;fillColor=#FAD9D5;strokeColor=#D0CEE2;fontColor=#1A1A1A;" parent="1" connectable="0" vertex="1">
          <mxGeometry x="446.0000000000001" y="242.5" as="geometry" />
        </mxCell>
        <mxCell id="Cuksicx7Q6Ttsj1FzyHK-105" value="&lt;b&gt;year_started&lt;/b&gt;" style="ellipse;whiteSpace=wrap;html=1;align=center;fontStyle=4;labelBackgroundColor=none;fillColor=#FAD9D5;strokeColor=#D0CEE2;fontColor=#1A1A1A;" parent="1" vertex="1">
          <mxGeometry x="269" y="96" width="100" height="40" as="geometry" />
        </mxCell>
        <mxCell id="Cuksicx7Q6Ttsj1FzyHK-106" value="is_active" style="ellipse;whiteSpace=wrap;html=1;align=center;labelBackgroundColor=none;fillColor=#FAD9D5;strokeColor=#D0CEE2;fontColor=#1A1A1A;" parent="1" vertex="1">
          <mxGeometry x="301" y="470" width="100" height="40" as="geometry" />
        </mxCell>
        <mxCell id="Cuksicx7Q6Ttsj1FzyHK-107" value="" style="endArrow=none;html=1;rounded=0;exitX=0.5;exitY=1;exitDx=0;exitDy=0;entryX=0.5;entryY=0;entryDx=0;entryDy=0;labelBackgroundColor=none;fontColor=default;strokeColor=#09555B;" parent="1" source="Cuksicx7Q6Ttsj1FzyHK-73" target="Cuksicx7Q6Ttsj1FzyHK-106" edge="1">
          <mxGeometry relative="1" as="geometry">
            <mxPoint x="261" y="357" as="sourcePoint" />
            <mxPoint x="239" y="383" as="targetPoint" />
          </mxGeometry>
        </mxCell>
        <mxCell id="Cuksicx7Q6Ttsj1FzyHK-108" value="" style="endArrow=none;html=1;rounded=0;exitX=0.5;exitY=0;exitDx=0;exitDy=0;entryX=0.5;entryY=1;entryDx=0;entryDy=0;labelBackgroundColor=none;fontColor=default;strokeColor=#09555B;" parent="1" source="Cuksicx7Q6Ttsj1FzyHK-90" target="Cuksicx7Q6Ttsj1FzyHK-130" edge="1">
          <mxGeometry relative="1" as="geometry">
            <mxPoint x="-43" y="420" as="sourcePoint" />
            <mxPoint x="11" y="395" as="targetPoint" />
          </mxGeometry>
        </mxCell>
        <mxCell id="Cuksicx7Q6Ttsj1FzyHK-110" value="accommodates" style="shape=rhombus;perimeter=rhombusPerimeter;whiteSpace=wrap;html=1;align=center;labelBackgroundColor=none;fillColor=#FAD9D5;strokeColor=#D0CEE2;fontColor=#1A1A1A;" parent="1" vertex="1">
          <mxGeometry x="495" y="203.75" width="96" height="42.5" as="geometry" />
        </mxCell>
        <mxCell id="Cuksicx7Q6Ttsj1FzyHK-111" value="" style="shape=link;html=1;rounded=0;exitX=1;exitY=0.5;exitDx=0;exitDy=0;entryX=0;entryY=0.5;entryDx=0;entryDy=0;labelBackgroundColor=none;fontColor=default;strokeColor=#09555B;" parent="1" source="Cuksicx7Q6Ttsj1FzyHK-110" target="Cuksicx7Q6Ttsj1FzyHK-158" edge="1">
          <mxGeometry relative="1" as="geometry">
            <mxPoint x="590" y="264" as="sourcePoint" />
            <mxPoint x="646" y="225.005" as="targetPoint" />
          </mxGeometry>
        </mxCell>
        <mxCell id="Cuksicx7Q6Ttsj1FzyHK-112" value="N" style="resizable=0;html=1;whiteSpace=wrap;align=right;verticalAlign=bottom;labelBackgroundColor=none;fillColor=#FAD9D5;strokeColor=#D0CEE2;fontColor=#1A1A1A;" parent="Cuksicx7Q6Ttsj1FzyHK-111" connectable="0" vertex="1">
          <mxGeometry x="1" relative="1" as="geometry">
            <mxPoint x="-6" as="offset" />
          </mxGeometry>
        </mxCell>
        <mxCell id="Cuksicx7Q6Ttsj1FzyHK-113" value="is_active" style="ellipse;whiteSpace=wrap;html=1;align=center;labelBackgroundColor=none;fillColor=#FAD9D5;strokeColor=#D0CEE2;fontColor=#1A1A1A;" parent="1" vertex="1">
          <mxGeometry x="346" y="70" width="100" height="40" as="geometry" />
        </mxCell>
        <mxCell id="Cuksicx7Q6Ttsj1FzyHK-114" value="" style="endArrow=none;html=1;rounded=0;exitX=0.5;exitY=1;exitDx=0;exitDy=0;entryX=0.5;entryY=0;entryDx=0;entryDy=0;labelBackgroundColor=none;fontColor=default;strokeColor=#09555B;" parent="1" source="Cuksicx7Q6Ttsj1FzyHK-113" target="Cuksicx7Q6Ttsj1FzyHK-71" edge="1">
          <mxGeometry relative="1" as="geometry">
            <mxPoint x="318" y="145" as="sourcePoint" />
            <mxPoint x="379" y="201" as="targetPoint" />
          </mxGeometry>
        </mxCell>
        <mxCell id="Cuksicx7Q6Ttsj1FzyHK-115" value="is_compulsory" style="ellipse;whiteSpace=wrap;html=1;align=center;labelBackgroundColor=none;fillColor=#FAD9D5;strokeColor=#D0CEE2;fontColor=#1A1A1A;" parent="1" vertex="1">
          <mxGeometry x="446" y="255" width="100" height="40" as="geometry" />
        </mxCell>
        <mxCell id="Cuksicx7Q6Ttsj1FzyHK-118" value="" style="endArrow=none;html=1;rounded=0;exitX=1;exitY=1;exitDx=0;exitDy=0;entryX=0;entryY=0;entryDx=0;entryDy=0;labelBackgroundColor=none;fontColor=default;strokeColor=#09555B;" parent="1" source="Cuksicx7Q6Ttsj1FzyHK-115" target="Cuksicx7Q6Ttsj1FzyHK-121" edge="1">
          <mxGeometry relative="1" as="geometry">
            <mxPoint x="811" y="364" as="sourcePoint" />
            <mxPoint x="743" y="395" as="targetPoint" />
          </mxGeometry>
        </mxCell>
        <mxCell id="Cuksicx7Q6Ttsj1FzyHK-119" value="" style="endArrow=none;html=1;rounded=0;exitX=0.5;exitY=0;exitDx=0;exitDy=0;entryX=0.75;entryY=1;entryDx=0;entryDy=0;labelBackgroundColor=none;fontColor=default;strokeColor=#09555B;" parent="1" source="Cuksicx7Q6Ttsj1FzyHK-120" target="Cuksicx7Q6Ttsj1FzyHK-130" edge="1">
          <mxGeometry relative="1" as="geometry">
            <mxPoint x="713" y="502" as="sourcePoint" />
            <mxPoint x="683" y="502" as="targetPoint" />
          </mxGeometry>
        </mxCell>
        <mxCell id="Cuksicx7Q6Ttsj1FzyHK-120" value="is_approved" style="ellipse;whiteSpace=wrap;html=1;align=center;labelBackgroundColor=none;fillColor=#FAD9D5;strokeColor=#D0CEE2;fontColor=#1A1A1A;" parent="1" vertex="1">
          <mxGeometry x="716" y="580" width="100" height="40" as="geometry" />
        </mxCell>
        <mxCell id="Cuksicx7Q6Ttsj1FzyHK-121" value="CourseRegistration" style="shape=rhombus;perimeter=rhombusPerimeter;whiteSpace=wrap;html=1;align=center;labelBackgroundColor=none;fillColor=#FAD9D5;strokeColor=#D0CEE2;fontColor=#1A1A1A;" parent="1" vertex="1">
          <mxGeometry x="524.5" y="275" width="120" height="70" as="geometry" />
        </mxCell>
        <mxCell id="Cuksicx7Q6Ttsj1FzyHK-122" value="" style="endArrow=none;html=1;rounded=0;exitX=0;exitY=0.5;exitDx=0;exitDy=0;entryX=1;entryY=1;entryDx=0;entryDy=0;labelBackgroundColor=none;fontColor=default;strokeColor=#09555B;" parent="1" source="Cuksicx7Q6Ttsj1FzyHK-79" target="Cuksicx7Q6Ttsj1FzyHK-121" edge="1">
          <mxGeometry relative="1" as="geometry">
            <mxPoint x="456" y="395" as="sourcePoint" />
            <mxPoint x="501" y="395" as="targetPoint" />
          </mxGeometry>
        </mxCell>
        <mxCell id="Cuksicx7Q6Ttsj1FzyHK-123" value="" style="endArrow=none;html=1;rounded=0;exitX=0.5;exitY=0;exitDx=0;exitDy=0;entryX=0.25;entryY=1;entryDx=0;entryDy=0;labelBackgroundColor=none;fontColor=default;strokeColor=#09555B;" parent="1" source="Cuksicx7Q6Ttsj1FzyHK-121" target="Cuksicx7Q6Ttsj1FzyHK-158" edge="1">
          <mxGeometry relative="1" as="geometry">
            <mxPoint x="466" y="405" as="sourcePoint" />
            <mxPoint x="665.25" y="240.63" as="targetPoint" />
          </mxGeometry>
        </mxCell>
        <mxCell id="Cuksicx7Q6Ttsj1FzyHK-125" value="M" style="resizable=0;html=1;whiteSpace=wrap;align=right;verticalAlign=bottom;labelBackgroundColor=none;fillColor=#FAD9D5;strokeColor=#D0CEE2;fontColor=#1A1A1A;" parent="1" connectable="0" vertex="1">
          <mxGeometry x="706.0000000000001" y="265" as="geometry" />
        </mxCell>
        <mxCell id="Cuksicx7Q6Ttsj1FzyHK-126" value="L" style="resizable=0;html=1;whiteSpace=wrap;align=right;verticalAlign=bottom;labelBackgroundColor=none;fillColor=#FAD9D5;strokeColor=#D0CEE2;fontColor=#1A1A1A;" parent="1" connectable="0" vertex="1">
          <mxGeometry x="644.5000000000001" y="360" as="geometry" />
        </mxCell>
        <mxCell id="Cuksicx7Q6Ttsj1FzyHK-128" value="" style="endArrow=none;html=1;rounded=0;exitX=0.5;exitY=1;exitDx=0;exitDy=0;entryX=0;entryY=0.5;entryDx=0;entryDy=0;labelBackgroundColor=none;fontColor=default;strokeColor=#09555B;" parent="1" source="Cuksicx7Q6Ttsj1FzyHK-64" target="Cuksicx7Q6Ttsj1FzyHK-131" edge="1">
          <mxGeometry relative="1" as="geometry">
            <mxPoint x="66" y="245" as="sourcePoint" />
            <mxPoint x="316" y="550" as="targetPoint" />
            <Array as="points">
              <mxPoint x="66" y="480" />
              <mxPoint x="66" y="550" />
              <mxPoint x="106" y="550" />
            </Array>
          </mxGeometry>
        </mxCell>
        <mxCell id="Cuksicx7Q6Ttsj1FzyHK-130" value="CourseBlueprint" style="whiteSpace=wrap;html=1;align=center;labelBackgroundColor=none;fillColor=#FAD9D5;strokeColor=#D0CEE2;fontColor=#1A1A1A;" parent="1" vertex="1">
          <mxGeometry x="646" y="530" width="100" height="40" as="geometry" />
        </mxCell>
        <mxCell id="Cuksicx7Q6Ttsj1FzyHK-131" value="offers" style="shape=rhombus;perimeter=rhombusPerimeter;whiteSpace=wrap;html=1;align=center;labelBackgroundColor=none;fillColor=#FAD9D5;strokeColor=#D0CEE2;fontColor=#1A1A1A;" parent="1" vertex="1">
          <mxGeometry x="456" y="525" width="80" height="50" as="geometry" />
        </mxCell>
        <mxCell id="Cuksicx7Q6Ttsj1FzyHK-136" value="" style="shape=link;html=1;rounded=0;exitX=1;exitY=0.5;exitDx=0;exitDy=0;entryX=0;entryY=0.5;entryDx=0;entryDy=0;labelBackgroundColor=none;fontColor=default;strokeColor=#09555B;" parent="1" source="Cuksicx7Q6Ttsj1FzyHK-131" target="Cuksicx7Q6Ttsj1FzyHK-130" edge="1">
          <mxGeometry relative="1" as="geometry">
            <mxPoint x="576" y="549.5799999999999" as="sourcePoint" />
            <mxPoint x="626" y="549.5799999999999" as="targetPoint" />
          </mxGeometry>
        </mxCell>
        <mxCell id="Cuksicx7Q6Ttsj1FzyHK-137" value="N" style="resizable=0;html=1;whiteSpace=wrap;align=right;verticalAlign=bottom;labelBackgroundColor=none;fillColor=#FAD9D5;strokeColor=#D0CEE2;fontColor=#1A1A1A;" parent="Cuksicx7Q6Ttsj1FzyHK-136" connectable="0" vertex="1">
          <mxGeometry x="1" relative="1" as="geometry" />
        </mxCell>
        <mxCell id="Cuksicx7Q6Ttsj1FzyHK-138" value="instantiates" style="shape=rhombus;perimeter=rhombusPerimeter;whiteSpace=wrap;html=1;align=center;labelBackgroundColor=none;fillColor=#FAD9D5;strokeColor=#D0CEE2;fontColor=#1A1A1A;" parent="1" vertex="1">
          <mxGeometry x="656" y="440" width="80" height="50" as="geometry" />
        </mxCell>
        <mxCell id="Cuksicx7Q6Ttsj1FzyHK-139" value="teaches" style="shape=rhombus;perimeter=rhombusPerimeter;whiteSpace=wrap;html=1;align=center;labelBackgroundColor=none;fillColor=#FAD9D5;strokeColor=#D0CEE2;fontColor=#1A1A1A;" parent="1" vertex="1">
          <mxGeometry x="716" y="265" width="80" height="50" as="geometry" />
        </mxCell>
        <mxCell id="Cuksicx7Q6Ttsj1FzyHK-141" value="" style="endArrow=none;html=1;rounded=0;exitX=0.5;exitY=0;exitDx=0;exitDy=0;entryX=0.75;entryY=1;entryDx=0;entryDy=0;labelBackgroundColor=none;fontColor=default;strokeColor=#09555B;" parent="1" source="Cuksicx7Q6Ttsj1FzyHK-139" target="Cuksicx7Q6Ttsj1FzyHK-158" edge="1">
          <mxGeometry relative="1" as="geometry">
            <mxPoint x="826" y="315" as="sourcePoint" />
            <mxPoint x="802.25" y="240.63" as="targetPoint" />
          </mxGeometry>
        </mxCell>
        <mxCell id="Cuksicx7Q6Ttsj1FzyHK-142" value="" style="endArrow=none;html=1;rounded=0;exitX=0.25;exitY=0;exitDx=0;exitDy=0;entryX=0.198;entryY=0.754;entryDx=0;entryDy=0;labelBackgroundColor=none;fontColor=default;strokeColor=#09555B;entryPerimeter=0;" parent="1" source="Cuksicx7Q6Ttsj1FzyHK-79" target="Cuksicx7Q6Ttsj1FzyHK-139" edge="1">
          <mxGeometry relative="1" as="geometry">
            <mxPoint x="796" y="275" as="sourcePoint" />
            <mxPoint x="737" y="322" as="targetPoint" />
          </mxGeometry>
        </mxCell>
        <mxCell id="Cuksicx7Q6Ttsj1FzyHK-143" value="N" style="resizable=0;html=1;whiteSpace=wrap;align=right;verticalAlign=bottom;labelBackgroundColor=none;fillColor=#FAD9D5;strokeColor=#D0CEE2;fontColor=#1A1A1A;" parent="1" connectable="0" vertex="1">
          <mxGeometry x="781.0000000000002" y="265" as="geometry" />
        </mxCell>
        <mxCell id="Cuksicx7Q6Ttsj1FzyHK-144" value="M" style="resizable=0;html=1;whiteSpace=wrap;align=right;verticalAlign=bottom;labelBackgroundColor=none;fillColor=#FAD9D5;strokeColor=#D0CEE2;fontColor=#1A1A1A;" parent="1" connectable="0" vertex="1">
          <mxGeometry x="686.0000000000002" y="347" as="geometry" />
        </mxCell>
        <mxCell id="Cuksicx7Q6Ttsj1FzyHK-145" value="" style="shape=link;html=1;rounded=0;exitX=0.5;exitY=0;exitDx=0;exitDy=0;entryX=0.5;entryY=1;entryDx=0;entryDy=0;labelBackgroundColor=none;fontColor=default;strokeColor=#09555B;" parent="1" source="Cuksicx7Q6Ttsj1FzyHK-138" target="Cuksicx7Q6Ttsj1FzyHK-79" edge="1">
          <mxGeometry relative="1" as="geometry">
            <mxPoint x="744" y="405" as="sourcePoint" />
            <mxPoint x="786" y="405" as="targetPoint" />
          </mxGeometry>
        </mxCell>
        <mxCell id="Cuksicx7Q6Ttsj1FzyHK-146" value="N" style="resizable=0;html=1;whiteSpace=wrap;align=right;verticalAlign=bottom;labelBackgroundColor=none;fillColor=#FAD9D5;strokeColor=#D0CEE2;fontColor=#1A1A1A;" parent="Cuksicx7Q6Ttsj1FzyHK-145" connectable="0" vertex="1">
          <mxGeometry x="1" relative="1" as="geometry">
            <mxPoint x="17" y="21" as="offset" />
          </mxGeometry>
        </mxCell>
        <mxCell id="Cuksicx7Q6Ttsj1FzyHK-147" value="" style="endArrow=none;html=1;rounded=0;exitX=0.5;exitY=1;exitDx=0;exitDy=0;entryX=0.5;entryY=0;entryDx=0;entryDy=0;labelBackgroundColor=none;fontColor=default;strokeColor=#09555B;" parent="1" source="Cuksicx7Q6Ttsj1FzyHK-138" target="Cuksicx7Q6Ttsj1FzyHK-130" edge="1">
          <mxGeometry relative="1" as="geometry">
            <mxPoint x="826" y="288" as="sourcePoint" />
            <mxPoint x="861" y="256" as="targetPoint" />
            <Array as="points" />
          </mxGeometry>
        </mxCell>
        <mxCell id="Cuksicx7Q6Ttsj1FzyHK-148" value="1" style="resizable=0;html=1;whiteSpace=wrap;align=right;verticalAlign=bottom;labelBackgroundColor=none;fillColor=#FAD9D5;strokeColor=#D0CEE2;fontColor=#1A1A1A;" parent="1" connectable="0" vertex="1">
          <mxGeometry x="705.9999999999998" y="525.0000000000001" as="geometry" />
        </mxCell>
        <mxCell id="Cuksicx7Q6Ttsj1FzyHK-149" value="date_from" style="ellipse;whiteSpace=wrap;html=1;align=center;labelBackgroundColor=none;fillColor=#FAD9D5;strokeColor=#D0CEE2;fontColor=#1A1A1A;" parent="1" vertex="1">
          <mxGeometry x="756" y="320" width="60" height="31.5" as="geometry" />
        </mxCell>
        <mxCell id="Cuksicx7Q6Ttsj1FzyHK-150" value="date_to" style="ellipse;whiteSpace=wrap;html=1;align=center;labelBackgroundColor=none;fillColor=#FAD9D5;strokeColor=#D0CEE2;fontColor=#1A1A1A;" parent="1" vertex="1">
          <mxGeometry x="756" y="398" width="60" height="28" as="geometry" />
        </mxCell>
        <mxCell id="Cuksicx7Q6Ttsj1FzyHK-151" value="classroom" style="ellipse;whiteSpace=wrap;html=1;align=center;labelBackgroundColor=none;fillColor=#FAD9D5;strokeColor=#D0CEE2;fontColor=#1A1A1A;" parent="1" vertex="1">
          <mxGeometry x="726" y="426" width="70" height="28" as="geometry" />
        </mxCell>
        <mxCell id="Cuksicx7Q6Ttsj1FzyHK-152" value="" style="endArrow=none;html=1;rounded=0;exitX=0;exitY=1;exitDx=0;exitDy=0;entryX=0.5;entryY=0;entryDx=0;entryDy=0;labelBackgroundColor=none;fontColor=default;strokeColor=#09555B;" parent="1" source="Cuksicx7Q6Ttsj1FzyHK-149" target="Cuksicx7Q6Ttsj1FzyHK-79" edge="1">
          <mxGeometry relative="1" as="geometry">
            <mxPoint x="831" y="525" as="sourcePoint" />
            <mxPoint x="776" y="540" as="targetPoint" />
          </mxGeometry>
        </mxCell>
        <mxCell id="Cuksicx7Q6Ttsj1FzyHK-153" value="" style="endArrow=none;html=1;rounded=0;exitX=0;exitY=0.5;exitDx=0;exitDy=0;entryX=1;entryY=1;entryDx=0;entryDy=0;labelBackgroundColor=none;fontColor=default;strokeColor=#09555B;" parent="1" source="Cuksicx7Q6Ttsj1FzyHK-150" target="Cuksicx7Q6Ttsj1FzyHK-79" edge="1">
          <mxGeometry relative="1" as="geometry">
            <mxPoint x="806" y="370" as="sourcePoint" />
            <mxPoint x="776" y="360" as="targetPoint" />
          </mxGeometry>
        </mxCell>
        <mxCell id="Cuksicx7Q6Ttsj1FzyHK-154" value="" style="endArrow=none;html=1;rounded=0;exitX=0;exitY=0;exitDx=0;exitDy=0;entryX=0.75;entryY=1;entryDx=0;entryDy=0;labelBackgroundColor=none;fontColor=default;strokeColor=#09555B;" parent="1" source="Cuksicx7Q6Ttsj1FzyHK-151" target="Cuksicx7Q6Ttsj1FzyHK-79" edge="1">
          <mxGeometry relative="1" as="geometry">
            <mxPoint x="836" y="400" as="sourcePoint" />
            <mxPoint x="776" y="380" as="targetPoint" />
          </mxGeometry>
        </mxCell>
        <mxCell id="Cuksicx7Q6Ttsj1FzyHK-156" value="&lt;b&gt;offering_id&lt;/b&gt;" style="ellipse;whiteSpace=wrap;html=1;align=center;fontStyle=4;labelBackgroundColor=none;fillColor=#FAD9D5;strokeColor=#D0CEE2;fontColor=#1A1A1A;" parent="1" vertex="1">
          <mxGeometry x="751" y="362" width="70" height="33" as="geometry" />
        </mxCell>
        <mxCell id="Cuksicx7Q6Ttsj1FzyHK-157" value="" style="endArrow=none;html=1;rounded=0;exitX=0;exitY=0.5;exitDx=0;exitDy=0;entryX=1;entryY=0.5;entryDx=0;entryDy=0;labelBackgroundColor=none;fontColor=default;strokeColor=#09555B;" parent="1" source="Cuksicx7Q6Ttsj1FzyHK-156" target="Cuksicx7Q6Ttsj1FzyHK-79" edge="1">
          <mxGeometry relative="1" as="geometry">
            <mxPoint x="856" y="335" as="sourcePoint" />
            <mxPoint x="776" y="360" as="targetPoint" />
          </mxGeometry>
        </mxCell>
        <mxCell id="Cuksicx7Q6Ttsj1FzyHK-158" value="User" style="whiteSpace=wrap;html=1;align=center;labelBackgroundColor=none;fillColor=#FAD9D5;strokeColor=#D0CEE2;fontColor=#1A1A1A;" parent="1" vertex="1">
          <mxGeometry x="686" y="206.25" width="100" height="40" as="geometry" />
        </mxCell>
        <mxCell id="Cuksicx7Q6Ttsj1FzyHK-163" value="&lt;b&gt;user_id&lt;/b&gt;" style="ellipse;whiteSpace=wrap;html=1;align=center;fontStyle=4;labelBackgroundColor=none;fillColor=#FAD9D5;strokeColor=#D0CEE2;fontColor=#1A1A1A;" parent="1" vertex="1">
          <mxGeometry x="653" y="148" width="60" height="30" as="geometry" />
        </mxCell>
        <mxCell id="Cuksicx7Q6Ttsj1FzyHK-164" value="" style="endArrow=none;html=1;rounded=0;exitX=0.173;exitY=0.035;exitDx=0;exitDy=0;entryX=0.5;entryY=1;entryDx=0;entryDy=0;labelBackgroundColor=none;fontColor=default;strokeColor=#09555B;exitPerimeter=0;" parent="1" source="Cuksicx7Q6Ttsj1FzyHK-158" target="Cuksicx7Q6Ttsj1FzyHK-163" edge="1">
          <mxGeometry relative="1" as="geometry">
            <mxPoint x="576" y="302" as="sourcePoint" />
            <mxPoint x="668" y="255" as="targetPoint" />
          </mxGeometry>
        </mxCell>
        <mxCell id="jrxNtr_iuggc9ucb1977-1" value="" style="endArrow=none;html=1;rounded=0;exitX=0.25;exitY=0;exitDx=0;exitDy=0;entryX=0.5;entryY=1;entryDx=0;entryDy=0;labelBackgroundColor=none;fontColor=default;strokeColor=#09555B;" parent="1" source="Cuksicx7Q6Ttsj1FzyHK-158" target="jrxNtr_iuggc9ucb1977-2" edge="1">
          <mxGeometry relative="1" as="geometry">
            <mxPoint x="876" y="103" as="sourcePoint" />
            <mxPoint x="916" y="110" as="targetPoint" />
          </mxGeometry>
        </mxCell>
        <mxCell id="jrxNtr_iuggc9ucb1977-2" value="name" style="ellipse;whiteSpace=wrap;html=1;align=center;labelBackgroundColor=none;fillColor=#FAD9D5;strokeColor=#D0CEE2;fontColor=#1A1A1A;" parent="1" vertex="1">
          <mxGeometry x="686" y="96" width="80" height="30" as="geometry" />
        </mxCell>
        <mxCell id="jrxNtr_iuggc9ucb1977-4" value="surname" style="ellipse;whiteSpace=wrap;html=1;align=center;labelBackgroundColor=none;fillColor=#FAD9D5;strokeColor=#D0CEE2;fontColor=#1A1A1A;" parent="1" vertex="1">
          <mxGeometry x="721" y="165" width="65" height="30" as="geometry" />
        </mxCell>
        <mxCell id="jrxNtr_iuggc9ucb1977-5" value="" style="endArrow=none;html=1;rounded=0;exitX=0.5;exitY=0;exitDx=0;exitDy=0;entryX=0.5;entryY=1;entryDx=0;entryDy=0;labelBackgroundColor=none;fontColor=default;strokeColor=#09555B;" parent="1" source="Cuksicx7Q6Ttsj1FzyHK-158" target="jrxNtr_iuggc9ucb1977-4" edge="1">
          <mxGeometry relative="1" as="geometry">
            <mxPoint x="876" y="113" as="sourcePoint" />
            <mxPoint x="956" y="103" as="targetPoint" />
          </mxGeometry>
        </mxCell>
        <mxCell id="jrxNtr_iuggc9ucb1977-6" value="email" style="ellipse;whiteSpace=wrap;html=1;align=center;labelBackgroundColor=none;fillColor=#FAD9D5;strokeColor=#D0CEE2;fontColor=#1A1A1A;" parent="1" vertex="1">
          <mxGeometry x="616" y="180.75" width="70" height="23" as="geometry" />
        </mxCell>
        <mxCell id="jrxNtr_iuggc9ucb1977-7" value="" style="endArrow=none;html=1;rounded=0;exitX=0;exitY=0.5;exitDx=0;exitDy=0;entryX=1;entryY=1;entryDx=0;entryDy=0;labelBackgroundColor=none;fontColor=default;strokeColor=#09555B;" parent="1" source="Cuksicx7Q6Ttsj1FzyHK-158" target="jrxNtr_iuggc9ucb1977-6" edge="1">
          <mxGeometry relative="1" as="geometry">
            <mxPoint x="851" y="83" as="sourcePoint" />
            <mxPoint x="916" y="60" as="targetPoint" />
          </mxGeometry>
        </mxCell>
        <mxCell id="gDirljBr_H3MMwNp9Sqr-2" value="program_type" style="ellipse;whiteSpace=wrap;html=1;align=center;labelBackgroundColor=none;fillColor=#FAD9D5;strokeColor=#D0CEE2;fontColor=#1A1A1A;" vertex="1" parent="1">
          <mxGeometry x="456" y="70" width="100" height="40" as="geometry" />
        </mxCell>
        <mxCell id="gDirljBr_H3MMwNp9Sqr-3" value="" style="endArrow=none;html=1;rounded=0;exitX=0;exitY=1;exitDx=0;exitDy=0;entryX=0.563;entryY=0.024;entryDx=0;entryDy=0;entryPerimeter=0;labelBackgroundColor=none;fontColor=default;strokeColor=#09555B;" edge="1" parent="1" source="gDirljBr_H3MMwNp9Sqr-2" target="Cuksicx7Q6Ttsj1FzyHK-71">
          <mxGeometry relative="1" as="geometry">
            <mxPoint x="406" y="120" as="sourcePoint" />
            <mxPoint x="391" y="215" as="targetPoint" />
          </mxGeometry>
        </mxCell>
        <mxCell id="gDirljBr_H3MMwNp9Sqr-8" value="available_in" style="shape=rhombus;perimeter=rhombusPerimeter;whiteSpace=wrap;html=1;align=center;labelBackgroundColor=none;fillColor=#FAD9D5;strokeColor=#D0CEE2;fontColor=#1A1A1A;" vertex="1" parent="1">
          <mxGeometry x="524.5" y="395" width="97" height="45" as="geometry" />
        </mxCell>
        <mxCell id="gDirljBr_H3MMwNp9Sqr-9" value="" style="endArrow=none;html=1;rounded=0;exitX=1;exitY=0.5;exitDx=0;exitDy=0;entryX=0;entryY=0.5;entryDx=0;entryDy=0;labelBackgroundColor=none;fontColor=default;strokeColor=#09555B;" edge="1" parent="1" source="Cuksicx7Q6Ttsj1FzyHK-73" target="gDirljBr_H3MMwNp9Sqr-8">
          <mxGeometry relative="1" as="geometry">
            <mxPoint x="456" y="395" as="sourcePoint" />
            <mxPoint x="523" y="325" as="targetPoint" />
          </mxGeometry>
        </mxCell>
        <mxCell id="gDirljBr_H3MMwNp9Sqr-10" value="" style="endArrow=none;html=1;rounded=0;exitX=1;exitY=0.5;exitDx=0;exitDy=0;entryX=0;entryY=0.75;entryDx=0;entryDy=0;labelBackgroundColor=none;fontColor=default;strokeColor=#09555B;" edge="1" parent="1" source="gDirljBr_H3MMwNp9Sqr-8" target="Cuksicx7Q6Ttsj1FzyHK-79">
          <mxGeometry relative="1" as="geometry">
            <mxPoint x="546" y="430" as="sourcePoint" />
            <mxPoint x="618" y="429" as="targetPoint" />
          </mxGeometry>
        </mxCell>
        <mxCell id="gDirljBr_H3MMwNp9Sqr-11" value="K" style="resizable=0;html=1;whiteSpace=wrap;align=right;verticalAlign=bottom;labelBackgroundColor=none;fillColor=#FAD9D5;strokeColor=#D0CEE2;fontColor=#1A1A1A;" connectable="0" vertex="1" parent="1">
          <mxGeometry x="526.0000000000001" y="440" as="geometry" />
        </mxCell>
        <mxCell id="gDirljBr_H3MMwNp9Sqr-14" value="name" style="ellipse;whiteSpace=wrap;html=1;align=center;labelBackgroundColor=none;fillColor=#FAD9D5;strokeColor=#D0CEE2;fontColor=#1A1A1A;" vertex="1" parent="1">
          <mxGeometry x="96" y="153" width="100" height="40" as="geometry" />
        </mxCell>
        <mxCell id="gDirljBr_H3MMwNp9Sqr-15" value="" style="endArrow=none;html=1;rounded=0;exitX=0.75;exitY=0;exitDx=0;exitDy=0;entryX=0.5;entryY=1;entryDx=0;entryDy=0;labelBackgroundColor=none;fontColor=default;strokeColor=#09555B;" edge="1" parent="1" source="Cuksicx7Q6Ttsj1FzyHK-64" target="gDirljBr_H3MMwNp9Sqr-14">
          <mxGeometry relative="1" as="geometry">
            <mxPoint x="366" y="215" as="sourcePoint" />
            <mxPoint x="291" y="187" as="targetPoint" />
          </mxGeometry>
        </mxCell>
        <mxCell id="gDirljBr_H3MMwNp9Sqr-17" value="reg_date" style="ellipse;whiteSpace=wrap;html=1;align=center;labelBackgroundColor=none;fillColor=#FAD9D5;strokeColor=#D0CEE2;fontColor=#1A1A1A;" vertex="1" parent="1">
          <mxGeometry x="499.5" y="345" width="87" height="30" as="geometry" />
        </mxCell>
        <mxCell id="gDirljBr_H3MMwNp9Sqr-18" value="" style="endArrow=none;html=1;rounded=0;exitX=0;exitY=1;exitDx=0;exitDy=0;entryX=0.5;entryY=0;entryDx=0;entryDy=0;labelBackgroundColor=none;fontColor=default;strokeColor=#09555B;" edge="1" parent="1" source="Cuksicx7Q6Ttsj1FzyHK-121" target="gDirljBr_H3MMwNp9Sqr-17">
          <mxGeometry relative="1" as="geometry">
            <mxPoint x="541" y="299" as="sourcePoint" />
            <mxPoint x="553" y="308" as="targetPoint" />
          </mxGeometry>
        </mxCell>
        <mxCell id="gDirljBr_H3MMwNp9Sqr-19" value="F" style="resizable=0;html=1;whiteSpace=wrap;align=right;verticalAlign=bottom;labelBackgroundColor=none;fillColor=#FAD9D5;strokeColor=#D0CEE2;fontColor=#1A1A1A;" connectable="0" vertex="1" parent="1">
          <mxGeometry x="633.0000000000001" y="440" as="geometry" />
        </mxCell>
        <mxCell id="gDirljBr_H3MMwNp9Sqr-22" value="role" style="ellipse;whiteSpace=wrap;html=1;align=center;labelBackgroundColor=none;fillColor=#FAD9D5;strokeColor=#D0CEE2;fontColor=#1A1A1A;" vertex="1" parent="1">
          <mxGeometry x="762" y="136" width="65" height="30" as="geometry" />
        </mxCell>
        <mxCell id="gDirljBr_H3MMwNp9Sqr-23" value="" style="endArrow=none;html=1;rounded=0;exitX=0.921;exitY=0.076;exitDx=0;exitDy=0;entryX=0.5;entryY=1;entryDx=0;entryDy=0;labelBackgroundColor=none;fontColor=default;strokeColor=#09555B;exitPerimeter=0;" edge="1" parent="1" source="Cuksicx7Q6Ttsj1FzyHK-158" target="gDirljBr_H3MMwNp9Sqr-22">
          <mxGeometry relative="1" as="geometry">
            <mxPoint x="721" y="216" as="sourcePoint" />
            <mxPoint x="736" y="136" as="targetPoint" />
          </mxGeometry>
        </mxCell>
      </root>
    </mxGraphModel>
  </diagram>
</mxfile>
